<svg width="30" height="29" viewBox="0 0 30 29" fill="none" xmlns="http://www.w3.org/2000/svg">
<path d="M24.9598 12.9707C25.0134 13.8009 25.0134 14.6607 24.9598 15.4909C24.6856 19.7332 21.3536 23.1125 17.1706 23.3905C15.7435 23.4854 14.2536 23.4852 12.8294 23.3905C12.339 23.3579 11.8044 23.2409 11.344 23.0513C10.8318 22.8403 10.5756 22.7348 10.4454 22.7508C10.3153 22.7668 10.1264 22.9061 9.74868 23.1846C9.08268 23.6757 8.24367 24.0285 6.99943 23.9982C6.37026 23.9829 6.05568 23.9752 5.91484 23.7351C5.77401 23.495 5.94941 23.1626 6.30021 22.4978C6.78674 21.5758 7.09501 20.5203 6.62791 19.6746C5.82343 18.4666 5.1401 17.036 5.04024 15.4909C4.98659 14.6607 4.98659 13.8009 5.04024 12.9707C5.31441 8.72838 8.64639 5.34913 12.8294 5.07107C14.0318 4.99114 14.2812 4.97856 15.5 5.03368" stroke="#163300" stroke-width="8.5" stroke-linecap="round" stroke-linejoin="round"/>
</svg>
