<svg width="25" height="24" viewBox="0 0 25 24" fill="none" xmlns="http://www.w3.org/2000/svg">
<path d="M5.57612 7.34687C5.43073 8.56295 5.32871 10.7151 6.24438 11.6312C6.24438 11.6312 5.81332 9.267 9.67749 6.3008C11.2334 5.10672 11.593 3.48261 11.0497 2.26452C10.7411 1.57448 10.1774 1.00444 9.68769 0.606412C9.40202 0.372396 9.62137 -0.0136304 10.0371 0.000370538C12.552 0.0883765 16.6279 0.636413 18.3597 4.04464C19.1198 5.54075 19.1759 7.08685 18.8137 8.65896C18.5842 9.66303 17.768 11.8952 19.6299 12.1692C20.9588 12.3652 21.6016 11.5372 21.8898 10.9411C22.0097 10.6931 22.4254 10.6311 22.6499 10.8291C24.8944 12.8312 25.0857 15.1894 24.6215 17.2195C23.7237 21.1438 18.6556 24 13.6207 24C7.33093 24 2.3241 21.1778 1.02584 16.0695C0.502967 14.0073 0.76823 9.92704 4.82369 7.04685C5.12466 6.83083 5.61693 7.02285 5.57612 7.34687Z" fill="url(#paint0_radial_9_12)"/>
<defs>
<radialGradient id="paint0_radial_9_12" cx="0" cy="0" r="1" gradientUnits="userSpaceOnUse" gradientTransform="translate(12.3749 24.0622) rotate(-179.805) scale(18.004 23.1657)">
<stop offset="0.314" stop-color="#FF9800"/>
<stop offset="0.662" stop-color="#FF6D00"/>
<stop offset="0.972" stop-color="#F44336"/>
</radialGradient>
</defs>
</svg>
