<svg width="24" height="25" viewBox="0 0 24 25" fill="none" xmlns="http://www.w3.org/2000/svg">
<path d="M13.5425 0.657487L13.6807 0.793482L24 11.4425L22.8932 12.625L21.4723 11.1589L21.4731 22.3993C21.4731 23.2733 20.8289 23.9897 20.0118 24.0528L19.8942 24.0577H4.10578C3.27373 24.0577 2.59167 23.3811 2.53089 22.5228L2.52694 22.3993L2.52615 11.1598L1.10677 12.625L0 11.4425L10.3083 0.804262C11.1869 -0.137752 12.6039 -0.189994 13.5425 0.657487ZM11.5011 1.90466L11.4253 1.9768L4.10499 9.53033L4.10578 22.3993L8.0521 22.3984L8.05289 14.1069C8.05289 13.2329 8.69706 12.5164 9.51411 12.4526L9.63173 12.4484H14.3683C15.2003 12.4484 15.8824 13.1251 15.9432 13.9833L15.9471 14.1069L15.9463 22.3984L19.8942 22.3993L19.8934 9.5295L12.5526 1.95359C12.2652 1.65755 11.8169 1.6393 11.5011 1.90466ZM14.3683 14.1069H9.63173L9.63095 22.3984H14.3675L14.3683 14.1069Z" fill="#3C3C3C"/>
</svg>
