<svg width="25" height="28" viewBox="0 0 25 28" fill="none" xmlns="http://www.w3.org/2000/svg">
<path d="M16.8335 21.8571V23M16.8335 21.8571C15.8213 21.8571 14.9296 21.3521 14.4065 20.5852M16.8335 21.8571C17.8457 21.8571 18.7374 21.3521 19.2605 20.5852M14.4065 20.5852L13.3339 21.2857M14.4065 20.5852C14.0972 20.1316 13.9168 19.5864 13.9168 19C13.9168 18.4136 14.0971 17.8685 14.4064 17.415M19.2605 20.5852L20.3331 21.2857M19.2605 20.5852C19.5698 20.1316 19.7502 19.5864 19.7502 19C19.7502 18.4136 19.5699 17.8685 19.2606 17.415M16.8335 16.1429C17.8458 16.1429 18.7376 16.648 19.2606 17.415M16.8335 16.1429C15.8212 16.1429 14.9294 16.648 14.4064 17.415M16.8335 16.1429V15M19.2606 17.415L20.3335 16.7143M14.4064 17.415L13.3335 16.7143" stroke="#163300" stroke-width="8.5" stroke-linecap="round"/>
<path d="M4.3335 5H20.3335" stroke="#163300" stroke-width="8.5" stroke-linecap="round"/>
<path d="M4.3335 11H20.3335" stroke="#163300" stroke-width="8.5" stroke-linecap="round"/>
<path d="M4.3335 17H9.3335" stroke="#163300" stroke-width="8.5" stroke-linecap="round"/>
</svg>
