<svg width="25" height="24" viewBox="0 0 25 24" fill="none" xmlns="http://www.w3.org/2000/svg">
<g clip-path="url(#clip0_11_42)">
<path d="M9.16038 3.85713L9.89752 1.95427C10.0218 1.6321 10.2406 1.35498 10.525 1.15921C10.8095 0.963438 11.1465 0.858148 11.4918 0.857128H12.8975C13.2428 0.858148 13.5798 0.963438 13.8643 1.15921C14.1488 1.35498 14.3675 1.6321 14.4918 1.95427L15.2289 3.85713L17.7318 5.29713L19.7547 4.98856C20.0915 4.94284 20.4343 4.99828 20.7395 5.14785C21.0448 5.29742 21.2987 5.53436 21.4689 5.82856L22.1547 7.02856C22.3304 7.32744 22.4113 7.67258 22.3868 8.01842C22.3624 8.36426 22.2336 8.69455 22.0175 8.9657L20.7661 10.56V13.44L22.0518 15.0343C22.2679 15.3054 22.3966 15.6357 22.4211 15.9816C22.4456 16.3274 22.3647 16.6725 22.1889 16.9714L21.5032 18.1714C21.333 18.4656 21.0791 18.7025 20.7738 18.8521C20.4686 19.0017 20.1258 19.0571 19.7889 19.0114L17.7661 18.7028L15.2632 20.1428L14.5261 22.0457C14.4018 22.3679 14.1831 22.645 13.8986 22.8408C13.6141 23.0365 13.2771 23.1418 12.9318 23.1428H11.4918C11.1465 23.1418 10.8095 23.0365 10.525 22.8408C10.2406 22.645 10.0218 22.3679 9.89752 22.0457L9.16038 20.1428L6.65752 18.7028L4.63466 19.0114C4.29783 19.0571 3.95502 19.0017 3.64977 18.8521C3.34453 18.7025 3.09064 18.4656 2.92038 18.1714L2.23466 16.9714C2.05895 16.6725 1.97799 16.3274 2.00248 15.9816C2.02696 15.6357 2.15574 15.3054 2.3718 15.0343L3.62323 13.44V10.56L2.33752 8.9657C2.12145 8.69455 1.99268 8.36426 1.96819 8.01842C1.94371 7.67258 2.02466 7.32744 2.20038 7.02856L2.88609 5.82856C3.05636 5.53436 3.31025 5.29742 3.61549 5.14785C3.92073 4.99828 4.26355 4.94284 4.60038 4.98856L6.62323 5.29713L9.16038 3.85713ZM8.76609 12C8.76609 12.6781 8.96717 13.341 9.34391 13.9048C9.72064 14.4686 10.2561 14.9081 10.8826 15.1676C11.5091 15.4271 12.1985 15.495 12.8635 15.3627C13.5286 15.2304 14.1395 14.9038 14.619 14.4244C15.0985 13.9449 15.4251 13.3339 15.5574 12.6689C15.6896 12.0038 15.6217 11.3144 15.3622 10.6879C15.1027 10.0614 14.6633 9.52597 14.0995 9.14923C13.5356 8.7725 12.8728 8.57141 12.1947 8.57141C11.2853 8.57141 10.4133 8.93264 9.7703 9.57562C9.12731 10.2186 8.76609 11.0907 8.76609 12V12Z" stroke="#000001" stroke-width="2.31353" stroke-linecap="round" stroke-linejoin="round"/>
</g>
<defs>
<clipPath id="clip0_11_42">
<rect width="24" height="24" fill="white" transform="translate(0.194702)"/>
</clipPath>
</defs>
</svg>
