<svg width="18" height="18" viewBox="0 0 18 18" fill="none" xmlns="http://www.w3.org/2000/svg">
<path d="M15.2308 0H2.76923C2.03503 0.000801716 1.33113 0.292817 0.811975 0.811975C0.292817 1.33113 0.000801716 2.03503 0 2.76923V15.2308C0.000801716 15.965 0.292817 16.6689 0.811975 17.188C1.33113 17.7072 2.03503 17.9992 2.76923 18H15.2308C15.965 17.9992 16.6689 17.7072 17.188 17.188C17.7072 16.6689 17.9992 15.965 18 15.2308V2.76923C17.9992 2.03503 17.7072 1.33113 17.188 0.811975C16.6689 0.292817 15.965 0.000801716 15.2308 0V0ZM13.6839 5.9837L7.86851 12.9068C7.80472 12.9828 7.72534 13.0441 7.63576 13.0868C7.54617 13.1294 7.44848 13.1523 7.34928 13.1538H7.3376C7.24056 13.1538 7.14461 13.1334 7.05598 13.0939C6.96735 13.0544 6.88802 12.9967 6.82313 12.9245L4.33082 10.1553C4.26752 10.0882 4.21828 10.009 4.186 9.92261C4.15371 9.83618 4.13903 9.74416 4.14282 9.65197C4.1466 9.55978 4.16877 9.46928 4.20803 9.38578C4.24729 9.30228 4.30285 9.22747 4.37143 9.16575C4.44002 9.10403 4.52025 9.05665 4.60741 9.02638C4.69457 8.9961 4.7869 8.98356 4.87898 8.98948C4.97106 8.99541 5.06102 9.01968 5.14359 9.06086C5.22615 9.10205 5.29965 9.15933 5.35976 9.22933L7.31942 11.4066L12.6238 5.09322C12.7428 4.95566 12.9111 4.87044 13.0924 4.856C13.2737 4.84155 13.4534 4.89903 13.5927 5.01601C13.732 5.133 13.8196 5.30009 13.8367 5.48116C13.8537 5.66224 13.7989 5.84276 13.6839 5.9837V5.9837Z" fill="#245D7C"/>
</svg>
